<svg xmlns="http://www.w3.org/2000/svg" width="21" height="38"><path fill="#fff" d="M4.23 23.63h3.028l.97 2.495h5.085l.895-2.495h3.121l-4.854 12.077h-3.33zm6.531 9.352h.04l1.885-4.782H8.99zm9.025-17.93C19.786 7.882 12.69.766 8.596.2c.26.757.438 1.718.438 2.96 0 3.891-7.264 6.384-7.264 12.688 0 1.923.69 5.221 2.845 6.847.704-2.512 3.195-4.369 6.159-4.369 2.965 0 5.455 1.857 6.158 4.369.733-.553 2.854-2.847 2.854-7.643"/><path fill="#00a4d2" d="M10.772 18.269c2.449 0 4.473 1.546 4.93 1.993 1.033-1.007 1.662-2.333 1.662-3.786 0-1.593-.755-3.033-1.971-4.067a6.634 6.634 0 00-1.609-1.009s-2.336-1.157-3.04-2.12c-.603.86-1.537 1.448-2.81 2 0 0-1.297.708-1.824 1.164-1.193 1.032-1.93 2.458-1.93 4.032 0 1.466.64 2.803 1.688 3.813.367-.365 2.455-2.02 4.904-2.02"/></svg>