<svg width="147" height="36" viewBox="0 0 147 36" fill="none" xmlns="http://www.w3.org/2000/svg">
<path fill-rule="evenodd" clip-rule="evenodd" d="M34.4399 13.4323L36.8647 24.0103H36.9027L39.2898 13.4323H43.3429V26.8568H40.7329V15.6332H40.7139L38.1985 26.8568H35.4399L32.9961 15.6332H32.9589V26.8568H30.3505V13.4323H34.4399Z" fill="#12438F"/>
<path fill-rule="evenodd" clip-rule="evenodd" d="M51.8322 24.8395C53.3498 24.8395 55.4786 23.8949 55.4786 20.1419C55.4786 16.3871 53.3498 15.4441 51.8322 15.4441C50.3138 15.4441 48.1854 16.3871 48.1854 20.1419C48.1854 23.8949 50.3138 24.8395 51.8322 24.8395ZM51.8327 13.0783C53.6095 13.0783 58.2742 13.8537 58.2742 20.1431C58.2742 26.4302 53.6095 27.2071 51.8327 27.2071C50.0561 27.2071 45.3911 26.4302 45.3911 20.1431C45.3911 13.8537 50.0561 13.0783 51.8327 13.0783Z" fill="#12438F"/>
<path fill-rule="evenodd" clip-rule="evenodd" d="M68.9914 17.834C68.7683 17.0221 68.3234 15.4492 66.0105 15.4492C64.6602 15.4492 62.6231 16.4117 62.6231 20.2026C62.6231 22.6058 63.6423 24.8446 66.0105 24.8446C67.5652 24.8446 68.6582 23.9 68.9914 22.255H71.7858C71.2295 25.1755 69.3231 27.211 65.9549 27.211C62.3823 27.211 59.8297 24.787 59.8297 20.1652C59.8297 15.4697 62.5314 13.0822 65.9926 13.0822C70.0093 13.0822 71.6375 15.8561 71.7858 17.834H68.9914Z" fill="#12438F"/>
<path fill-rule="evenodd" clip-rule="evenodd" d="M79.6553 24.8395C81.1737 24.8395 83.3012 23.8949 83.3012 20.1419C83.3012 16.3871 81.1737 15.4441 79.6553 15.4441C78.1372 15.4441 76.0085 16.3871 76.0085 20.1419C76.0085 23.8949 78.1372 24.8395 79.6553 24.8395ZM79.6558 13.0783C81.4326 13.0783 86.0963 13.8537 86.0963 20.1431C86.0963 26.4302 81.4326 27.2071 79.6558 27.2071C77.8792 27.2071 73.2142 26.4302 73.2142 20.1431C73.2142 13.8537 77.8792 13.0783 79.6558 13.0783Z" fill="#12438F"/>
<path fill-rule="evenodd" clip-rule="evenodd" d="M90.9072 24.5482H94.0722C95.4249 24.5482 96.2007 23.7173 96.2007 22.6068C96.2007 21.4232 95.3319 20.83 94.0722 20.83H90.9072V24.5482ZM97.9967 13.435V15.7464H90.9076V18.5195H94.4054C96.9972 18.5195 98.9956 20.0926 98.9956 22.7546C98.9956 25.3998 97.052 26.8595 94.3688 26.8595H88.1129V13.435H97.9967Z" fill="#12438F"/>
<path fill-rule="evenodd" clip-rule="evenodd" d="M122.585 13.4323V15.7437H116.725V26.8568H113.93V13.4323H122.585Z" fill="#12438F"/>
<path fill-rule="evenodd" clip-rule="evenodd" d="M128.753 16.4666H128.791L130.624 21.7758H127.032L128.753 16.4666ZM127.181 13.4359L122.405 26.8614H125.348L126.292 24.0875H131.233L132.104 26.8614H135.138L130.419 13.4359H127.181Z" fill="#12438F"/>
<path fill-rule="evenodd" clip-rule="evenodd" d="M107.593 13.4323H104.354L99.5789 26.8578H102.521L105.928 16.4664H105.965L109.277 26.8578H112.312L107.593 13.4323Z" fill="#12438F"/>
<path fill-rule="evenodd" clip-rule="evenodd" d="M135.659 17.4274C135.806 15.2097 137.453 13.0822 140.896 13.0822C144.617 13.0822 146.023 15.1352 146.023 16.6315C146.023 18.3339 145.079 19.3511 143.709 19.7399C145.171 19.9981 146.522 21.1806 146.522 23.2717C146.522 25.3426 144.857 27.211 141.082 27.211C136.492 27.211 135.455 24.8988 135.455 22.7164H138.083C138.083 23.9 138.601 24.8988 140.988 24.8988C142.672 24.8988 143.728 24.1587 143.728 22.9746C143.728 21.6249 142.617 20.9424 141.266 20.9424H139.971V18.6855H141.193C142.526 18.6855 143.339 18.0383 143.339 16.9476C143.339 15.9308 142.433 15.3952 140.952 15.3952C139.083 15.3952 138.399 16.1514 138.286 17.4274H135.659Z" fill="#12438F"/>
<path fill-rule="evenodd" clip-rule="evenodd" d="M8.25083 32.1394H8.28699L10.0343 26.8436H6.61001L8.25083 32.1394ZM6.75193 35.1637L2.19836 21.7721H5.00438L5.9039 24.5389H10.6147L11.4444 21.7721H14.3368L9.8387 35.1637H6.75193Z" fill="#12438F"/>
<path fill-rule="evenodd" clip-rule="evenodd" d="M16.6947 14.6276C16.6947 7.98382 10.1191 1.38973 6.32572 0.865234C6.56554 1.5667 6.73153 2.45687 6.73153 3.60837C6.73153 7.21363 0 9.52398 0 15.3649C0 17.1475 0.640106 20.2037 2.63651 21.7096C3.28892 19.382 5.59697 17.6619 8.34322 17.6619C11.0907 17.6619 13.398 19.382 14.0499 21.7096C14.729 21.1978 16.6947 19.072 16.6947 14.6276Z" fill="#12438F"/>
<path fill-rule="evenodd" clip-rule="evenodd" d="M8.34299 17.6073C10.6124 17.6073 12.4882 19.0399 12.9124 19.4541C13.8691 18.5212 14.4517 17.2922 14.4517 15.9466C14.4517 14.4705 13.7519 13.136 12.6251 12.1778C12.1889 11.8049 11.6857 11.4887 11.1347 11.2429C11.1347 11.2429 8.96978 10.1707 8.31687 9.27813C7.75888 10.0759 6.89327 10.6199 5.71275 11.1314C5.71275 11.1314 4.51189 11.7871 4.02372 12.2096C2.91828 13.1662 2.23499 14.4873 2.23499 15.9466C2.23499 17.3044 2.82813 18.5433 3.79947 19.4793C4.13948 19.1416 6.07386 17.6073 8.34299 17.6073Z" fill="#00A4D2"/>
</svg>
