<svg width="161" height="33" xmlns="http://www.w3.org/2000/svg"><g fill="none" fill-rule="evenodd"><path d="M36.772 10.718l2.687 11.72h.042l2.645-11.72h4.49v14.873h-2.891V13.156h-.021l-2.787 12.435H37.88l-2.707-12.435h-.041v12.435h-2.89V10.718h4.53M56.045 23.36c1.682 0 4.04-1.046 4.04-5.204 0-4.16-2.358-5.205-4.04-5.205s-4.04 1.045-4.04 5.205c0 4.158 2.358 5.204 4.04 5.204zm0-13.032c1.969 0 7.137.86 7.137 7.828 0 6.965-5.168 7.826-7.137 7.826-1.968 0-7.136-.86-7.136-7.826 0-6.969 5.168-7.828 7.136-7.828zm19.009 5.265c-.247-.9-.74-2.642-3.303-2.642-1.496 0-3.753 1.066-3.753 5.266 0 2.663 1.13 5.143 3.753 5.143 1.723 0 2.934-1.046 3.303-2.869h3.096c-.617 3.236-2.729 5.491-6.46 5.491-3.958 0-6.787-2.686-6.787-7.806 0-5.202 2.994-7.848 6.828-7.848 4.45 0 6.255 3.074 6.419 5.265h-3.096m11.81 7.767c1.682 0 4.04-1.046 4.04-5.204 0-4.16-2.358-5.205-4.04-5.205s-4.04 1.045-4.04 5.205c0 4.158 2.358 5.204 4.04 5.204zm0-13.032c1.968 0 7.135.86 7.135 7.828 0 6.965-5.167 7.826-7.135 7.826s-7.137-.86-7.137-7.826c0-6.969 5.169-7.828 7.137-7.828zM99.331 23.03h3.507c1.499 0 2.358-.92 2.358-2.15 0-1.312-.962-1.969-2.358-1.969H99.33v4.12zm7.854-12.312v2.56h-7.854v3.073h3.876c2.871 0 5.085 1.743 5.085 4.692 0 2.931-2.153 4.548-5.126 4.548h-6.931V10.718h10.95zm27.245 0v2.56h-6.492v12.313h-3.097V10.718h9.59m6.834 3.359h.042l2.031 5.882h-3.98l1.907-5.882zm-1.741-3.359l-5.292 14.874h3.26l1.046-3.073h5.475l.964 3.073h3.362l-5.228-14.874h-3.587zm-21.704 0h-3.59l-5.29 14.874h3.26l3.774-11.512h.041l3.67 11.512h3.363l-5.229-14.874m31.097 4.424c.163-2.457 1.988-4.814 5.802-4.814 4.123 0 5.681 2.275 5.681 3.933 0 1.886-1.047 3.013-2.564 3.444 1.62.286 3.117 1.596 3.117 3.913 0 2.294-1.845 4.364-6.028 4.364-5.085 0-6.234-2.562-6.234-4.98h2.911c0 1.312.575 2.418 3.219 2.418 1.866 0 3.036-.82 3.036-2.132 0-1.495-1.231-2.251-2.728-2.251h-1.434v-2.5h1.353c1.477 0 2.378-.718 2.378-1.926 0-1.127-1.004-1.72-2.645-1.72-2.07 0-2.829.838-2.953 2.251h-2.911M8.22 29.317h.034l1.588-4.813H6.73l1.49 4.813zm-1.36 2.748l-4.14-12.17h2.55l.817 2.515h4.282l.754-2.515h2.628l-4.088 12.17H6.86zm8.962-19.389C15.822 6.64 9.846.646 6.4.17c.218.637.369 1.446.369 2.492C6.768 5.94.65 8.038.65 13.346c0 1.62.582 4.398 2.396 5.766.593-2.115 2.69-3.678 5.187-3.678 2.496 0 4.593 1.563 5.186 3.678.617-.465 2.403-2.397 2.403-6.436" fill="#FFF"/><path d="M8.233 15.385c2.062 0 3.767 1.302 4.152 1.679.87-.848 1.399-1.965 1.399-3.188 0-1.341-.636-2.554-1.66-3.425a5.587 5.587 0 00-1.354-.85s-1.968-.974-2.561-1.785c-.507.725-1.294 1.22-2.367 1.684 0 0-1.091.596-1.535.98-1.004.87-1.625 2.07-1.625 3.396 0 1.234.539 2.36 1.421 3.21.31-.306 2.067-1.7 4.13-1.7" fill="#00A4D2"/></g></svg>