<svg width="18" height="20" viewBox="0 0 18 20" fill="none" xmlns="http://www.w3.org/2000/svg">
<path d="M2.06257 5.96096L3.69306 13.4005C3.89421 14.3183 4.70711 14.9723 5.64669 14.9723H13.8085C14.7478 14.9723 15.5606 14.3186 15.762 13.4011L17.1283 7.17532C17.2652 6.5515 16.7902 5.96096 16.1515 5.96096H2.06257ZM2.06257 5.96096L1.10693 1.5" stroke="#12438F" stroke-width="1.5" stroke-linecap="round"/>
<circle cx="5.38355" cy="18.4217" r="1.53833" fill="#12438F"/>
<path d="M15.7823 18.4136C15.7823 19.2632 15.0936 19.9519 14.244 19.9519C13.3944 19.9519 12.7056 19.2632 12.7056 18.4136C12.7056 17.564 13.3944 16.8753 14.244 16.8753C15.0936 16.8753 15.7823 17.564 15.7823 18.4136Z" fill="#12438F"/>
</svg>
