<svg width="17" height="20" viewBox="0 0 17 20" fill="none" xmlns="http://www.w3.org/2000/svg">
<path fill-rule="evenodd" clip-rule="evenodd" d="M0.574616 0.613318C0.967049 0.52925 1.35333 0.779229 1.4374 1.17166L2.24026 4.91948H15.3037C16.3867 4.91948 17.192 5.92079 16.9599 6.97854L15.6361 13.0107C15.3678 14.2331 14.285 15.1041 13.0335 15.1041H5.12546C3.8737 15.1041 2.79071 14.2328 2.52273 13.01L0.942193 5.79838L0.0162717 1.4761C-0.0677962 1.08367 0.182183 0.697386 0.574616 0.613318ZM2.55596 6.37285L3.9424 12.6989C4.06421 13.2547 4.55648 13.6507 5.12546 13.6507H13.0335C13.6024 13.6507 14.0946 13.2548 14.2165 12.6992L15.5403 6.667C15.5735 6.51589 15.4584 6.37285 15.3037 6.37285H2.55596Z" fill="#12438F"/>
<circle cx="4.87039" cy="17.7195" r="1.49051" fill="#12438F"/>
<path d="M14.9464 17.7117C14.9464 18.5349 14.2791 19.2022 13.4559 19.2022C12.6327 19.2022 11.9654 18.5349 11.9654 17.7117C11.9654 16.8885 12.6327 16.2212 13.4559 16.2212C14.2791 16.2212 14.9464 16.8885 14.9464 17.7117Z" fill="#12438F"/>
</svg>
