<svg width="34" height="68" viewBox="0 0 34 68" fill="none" xmlns="http://www.w3.org/2000/svg">
<path fill-rule="evenodd" clip-rule="evenodd" d="M15.5459 76.047C14.5139 75.9085 12.8226 75.2947 10.7341 73.382C8.36774 71.2148 4.69256 71.3763 2.52537 73.7427C0.358194 76.1091 0.519685 79.7843 2.88608 81.9515C9.74775 88.2355 18.4539 89.6789 24.5133 84.8167C30.7139 79.8414 35.8726 69.5956 30.3624 62.9585C26.5362 58.3499 25.3207 56.0461 24.9659 55.1359C24.9539 55.1052 24.9434 55.0773 24.9342 55.0522C24.9491 54.8951 24.9665 54.6587 24.9665 54.3875C24.9665 51.1786 17.1507 50.0298 13.9419 50.0298C10.8651 50.0298 8.34695 52.4214 8.14494 55.447C8.14194 55.4735 8.13848 55.5038 8.13451 55.5382C8.09959 55.841 8.05555 56.3168 8.07223 56.9134C8.10625 58.1304 8.37793 59.4063 8.92496 60.8094C9.95685 63.456 12.1091 66.8972 16.2073 71.8334C17.4532 73.3342 17.6207 74.4201 17.6068 74.902C17.5933 75.3713 17.4199 75.61 17.241 75.7536C17.0589 75.8997 16.5594 76.183 15.5459 76.047Z" fill="url(#paint0_linear_4741_9432)"/>
<path d="M12.8789 10.0694C23.9769 -0.0942438 34.6706 10.0692 26.7464 19.614C18.8221 29.1589 20.0107 31.1039 20.0107 31.8963" stroke="#EA7D18" stroke-width="9" stroke-linecap="round"/>
<path d="M26.1214 45.3674C26.1214 48.3511 23.7026 50.7699 20.7189 50.7699C17.7352 50.7699 15.3164 48.3511 15.3164 45.3674C15.3164 42.3836 17.7352 39.9648 20.7189 39.9648C23.7026 39.9648 26.1214 42.3836 26.1214 45.3674Z" fill="#EA7D18"/>
<path d="M5.35938 9.2257C16.4573 -0.937994 27.1511 9.2254 19.2268 18.7703C11.3026 28.3152 12.4912 30.2601 12.4912 31.0526" stroke="#12438F" stroke-width="9" stroke-linecap="round"/>
<path d="M18.9378 44.7463C18.9378 47.73 16.519 50.1488 13.5353 50.1488C10.5516 50.1488 8.13281 47.73 8.13281 44.7463C8.13281 41.7625 10.5516 39.3438 13.5353 39.3438C16.519 39.3438 18.9378 41.7625 18.9378 44.7463Z" fill="#12438F"/>
<defs>
<linearGradient id="paint0_linear_4741_9432" x1="15.5252" y1="50.0299" x2="9.93438" y2="94.1755" gradientUnits="userSpaceOnUse">
<stop offset="0.0583427" stop-opacity="0.05"/>
<stop offset="1" stop-opacity="0"/>
</linearGradient>
</defs>
</svg>
