<svg width="27" height="27" viewBox="14 11 36 36" fill="none" xmlns="http://www.w3.org/2000/svg">
<path d="M16.8173 44.1622C19.3329 46.6426 23.3817 46.6426 31.4793 46.6426H32.9107C41.0083 46.6426 45.0571 46.6426 47.5727 44.1622C50.0882 41.6819 50.0882 37.6897 50.0882 29.7054V28.294C50.0882 20.3097 50.0882 16.3176 47.5727 13.8372C45.0571 11.3569 41.0083 11.3569 32.9107 11.3569H31.4793C23.3817 11.3569 19.3329 11.3569 16.8173 13.8372C14.3018 16.3176 14.3018 20.3097 14.3018 28.294V29.7054C14.3018 37.6897 14.3018 41.6819 16.8173 44.1622Z" fill="#0077FF"/>
<path fill-rule="evenodd" clip-rule="evenodd" d="M41.9297 34.81L39.5117 34.2144C39.2205 34.132 39.0149 33.8737 39.0046 33.5735L38.7028 24.7984C38.6155 23.637 37.7411 22.7132 36.8274 22.4412C36.7761 22.4259 36.7213 22.4465 36.6909 22.49C36.66 22.5343 36.672 22.5955 36.715 22.6283C36.9407 22.8006 37.5617 23.3626 37.5617 24.332L37.5599 35.8052C37.5599 36.913 36.4982 37.7255 35.4031 37.4558L32.9477 36.851C32.6755 36.7571 32.4863 36.5071 32.4764 36.2187L32.1747 27.443C32.0874 26.2816 31.213 25.3579 30.2993 25.0858C30.248 25.0706 30.1932 25.0911 30.1628 25.1346C30.132 25.1789 30.1439 25.2401 30.1869 25.273C30.4126 25.4452 31.0336 26.0072 31.0336 26.9766L31.0318 36.5401L31.0332 36.5403V38.4509C31.0332 39.5587 29.9714 40.3713 28.8763 40.1015L21.941 38.3933C20.9768 38.1558 20.3008 37.3054 20.3008 36.33L20.3008 24.8389C20.3008 23.7311 21.3625 22.9186 22.4576 23.1883L26.8276 24.2647V22.1932C26.8276 21.0854 27.8893 20.2728 28.9844 20.5426L33.3541 21.6189V19.5474C33.3541 18.4396 34.4158 17.627 35.511 17.8968L42.4463 19.605C43.4105 19.8425 44.0865 20.6929 44.0865 21.6683V33.1594C44.0865 34.2672 43.0248 35.0797 41.9297 34.81Z" fill="white"/>
</svg>
