<svg width="44" height="44" viewBox="0 0 44 44" fill="none" xmlns="http://www.w3.org/2000/svg">
<circle cx="22" cy="22" r="22" fill="white"/>
<path d="M31.8264 26.2762C31.1319 25.4432 30.3146 24.7323 29.5414 23.9774C28.8438 23.297 28.7998 22.9023 29.3606 22.1169C29.9726 21.2598 30.6308 20.4355 31.2484 19.5823C31.8249 18.7848 32.4142 17.9896 32.7176 17.0348C32.91 16.4273 32.7398 16.159 32.1169 16.0527C32.0096 16.0341 31.8986 16.0331 31.7894 16.0331L28.0937 16.0287C27.6386 16.022 27.3869 16.2204 27.2259 16.6239C27.0086 17.1692 26.7846 17.714 26.5257 18.2402C25.9383 19.4334 25.2823 20.5866 24.3625 21.5631C24.1597 21.7785 23.9354 22.0507 23.5965 21.9385C23.1725 21.7838 23.0476 21.0853 23.0546 20.8491L23.051 16.5835C22.9688 15.9741 22.8337 15.7024 22.2286 15.584L18.3896 15.5847C17.8772 15.5847 17.6202 15.7827 17.3466 16.1032C17.1888 16.2884 17.1411 16.4085 17.4655 16.4699C18.1027 16.5907 18.4617 17.0031 18.5569 17.642C18.7097 18.6628 18.699 19.6876 18.611 20.7125C18.5852 21.0118 18.5337 21.3103 18.415 21.5897C18.2294 22.0289 17.9296 22.1184 17.5359 21.8481C17.1793 21.6035 16.9289 21.2583 16.6838 20.9117C15.7631 19.6108 15.0285 18.2078 14.4295 16.7336C14.2565 16.3077 13.9579 16.0495 13.5066 16.0425C12.3979 16.0249 11.2889 16.022 10.1801 16.0435C9.51295 16.0561 9.31402 16.38 9.58571 16.9847C10.7933 19.671 12.1375 22.2825 13.8922 24.6615C14.7931 25.8824 15.8274 26.9602 17.1636 27.7241C18.678 28.5899 20.3082 28.8505 22.0251 28.7702C22.8291 28.7325 23.0705 28.5234 23.1078 27.7221C23.1329 27.1739 23.195 26.6288 23.4655 26.1362C23.7309 25.6528 24.1329 25.5607 24.5963 25.8614C24.8281 26.012 25.0234 26.2036 25.2078 26.4057C25.6603 26.9008 26.0966 27.4108 26.5663 27.8892C27.1554 28.4886 27.8532 28.8427 28.7306 28.7705L32.1273 28.7712C32.6746 28.7354 32.9583 28.0644 32.6441 27.4536C32.4234 27.0257 32.1338 26.6448 31.8264 26.2762Z" fill="#12438F"/>
</svg>
